<svg t="1585216037739" class="icon" viewBox="0 0 1025 1024" version="1.1" xmlns="http://www.w3.org/2000/svg" p-id="3450" width="1024" height="1024"><path d="M569.969174 652.42537v-90.733923H425.354772v90.733923h21.261217v-12.963422h97.867819v12.963422z m-127.607435-30.25133v-38.880234h102.122069v38.880234z m153.132936-99.332726c-38.288251-12.963422-63.803718-34.565782-85.074968-60.492627l4.25425-8.638937h-25.515467c-17.057135 30.25133-51.040967 51.85369-93.583468 73.45605 0 4.314452 4.25425 4.314452 4.25425 8.638937 4.25425 4.324485 4.25425 8.638937 8.5085 12.963422 4.25425-4.324485 12.76275-8.638937 21.27125-12.963422 4.25425-4.324485 8.5085-4.324485 12.752717-8.638937v12.963422H552.952174v-13.003557a242.411985 242.411985 0 0 1 29.77975 17.277874c4.25425-8.608836 8.5085-12.963422 12.762751-21.602359z m-148.878686 0c17.057135-12.963422 34.034001-25.926845 46.796751-43.204719 12.752717 17.277874 29.769717 30.241297 46.786717 43.204719z" fill="#fd0501" p-id="3451"></path><path d="M246.70637 617.859588l38.278217 25.926845-51.040967-203.080239-204.183937 47.529204 55.295218 38.890267L0 669.703244l63.803718 267.897352 331.771304-12.963423 29.77975-34.565782-336.025554 4.324486 12.76275-25.926845 344.524021-12.963422 29.779751-34.565782-353.042555 8.638937 21.27125-34.565782 340.279805-12.963422L514.673957 747.503846l-348.788305 8.648971zM412.592022 47.529204l12.76275 21.60236L267.97762 380.273769l12.752717 47.529204L450.870239 112.376417l17.057135 30.241297-157.417286 306.73745 17.057134 43.204719 165.845518-306.767551L569.969174 324.08556l-42.542501 21.572259 199.909619 51.843656 59.559502-203.070206-59.549468 34.565782-80.810684-146.902065L387.066522 0 233.94362 302.443066l12.76275 43.214753z m382.812272 427.742771l178.598234 289.489678h-25.475332l-195.655369-293.804129-42.532468-8.648971L897.486228 764.761653h-34.023967L672.051109 479.606494l-42.532467-8.638937 187.156902 298.118581H659.298392v-47.529204l-140.370185 151.216516 144.614402 151.22655V959.212989l165.895685-4.344553 195.655369-194.431269L837.936761 483.920946z" fill="#1890ff" p-id="3452"></path></svg>